<svg viewBox="0 0 480 319" xmlns="http://www.w3.org/2000/svg" stroke-width="1">
<defs><clipPath id="vp"><rect x="0" y="0" width="480" height="319"/></clipPath><clipPath id="ndclip"><circle cx="240" cy="309" r="258"/></clipPath></defs>
<rect x="0" y="0" width="480" height="319" fill="#000000"/>
<g clip-path="url(#vp)">
<g transform="translate(0 0)">
<rect x="0" y="0" width="480" height="319" fill="#000000"/>
<line x1="555.5" y1="168.5" x2="477.5" y2="162.5" stroke="#00AAFF" clip-path="url(#ndclip)"/>
<line x1="477.5" y1="162.5" x2="425.5" y2="183.5" stroke="#00AAFF" clip-path="url(#ndclip)"/>
<line x1="425.5" y1="183.5" x2="359.5" y2="184.5" stroke="#00AAFF" clip-path="url(#ndclip)"/>
<line x1="359.5" y1="184.5" x2="302.5" y2="247.5" stroke="#00AAFF" clip-path="url(#ndclip)"/>
<line x1="302.5" y1="247.5" x2="254.5" y2="261.5" stroke="#00AAFF" clip-path="url(#ndclip)"/>
<line x1="254.5" y1="261.5" x2="241.5" y2="275.5" stroke="#00AAFF" clip-path="url(#ndclip)"/>
<line x1="241.5" y1="275.5" x2="250.5" y2="375.5" stroke="#00AAFF" clip-path="url(#ndclip)"/>
<line x1="250.5" y1="375.5" x2="240.5" y2="405.5" stroke="#00AAFF" clip-path="url(#ndclip)"/>
<line x1="240.5" y1="405.5" x2="159.5" y2="454.5" stroke="#00AAFF" clip-path="url(#ndclip)"/>
<line x1="159.5" y1="454.5" x2="210.5" y2="578.5" stroke="#00AAFF" clip-path="url(#ndclip)"/>
<line x1="240.5" y1="584.5" x2="299.5" y2="564.5" stroke="#00AAFF" clip-path="url(#ndclip)"/>
<line x1="299.5" y1="564.5" x2="339.5" y2="616.5" stroke="#00AAFF" clip-path="url(#ndclip)"/>
<line x1="361.5" y1="601.5" x2="382.5" y2="556.5" stroke="#00AAFF" clip-path="url(#ndclip)"/>
<line x1="382.5" y1="556.5" x2="435.5" y2="598.5" stroke="#00AAFF" clip-path="url(#ndclip)"/>
<line x1="191.5" y1="533.5" x2="-2216.5" y2="-129.5" stroke="#ADAAAD" stroke-dasharray="3 3" clip-path="url(#ndclip)"/>
<line x1="191.5" y1="533.5" x2="232.5" y2="574.5" stroke="#ADAAAD" stroke-dasharray="3 3" clip-path="url(#ndclip)"/>
<line x1="232.5" y1="574.5" x2="276.5" y2="567.5" stroke="#ADAAAD" stroke-dasharray="3 3" clip-path="url(#ndclip)"/>
<line x1="276.5" y1="567.5" x2="309.5" y2="577.5" stroke="#ADAAAD" stroke-dasharray="3 3" clip-path="url(#ndclip)"/>
<line x1="371.5" y1="571.5" x2="403.5" y2="566.5" stroke="#ADAAAD" stroke-dasharray="3 3" clip-path="url(#ndclip)"/>
<line x1="403.5" y1="566.5" x2="446.5" y2="586.5" stroke="#ADAAAD" stroke-dasharray="3 3" clip-path="url(#ndclip)"/>
<line x1="514.5" y1="164.5" x2="401.5" y2="182.5" stroke="#ADAAAD" stroke-dasharray="3 3" clip-path="url(#ndclip)"/>
<line x1="401.5" y1="182.5" x2="318.5" y2="212.5" stroke="#ADAAAD" stroke-dasharray="3 3" clip-path="url(#ndclip)"/>
<line x1="318.5" y1="212.5" x2="267.5" y2="254.5" stroke="#ADAAAD" stroke-dasharray="3 3" clip-path="url(#ndclip)"/>
<line x1="267.5" y1="254.5" x2="240.5" y2="307.5" stroke="#ADAAAD" stroke-dasharray="3 3" clip-path="url(#ndclip)"/>
<line x1="240.5" y1="307.5" x2="240.5" y2="372.5" stroke="#ADAAAD" stroke-dasharray="3 3" clip-path="url(#ndclip)"/>
<line x1="240.5" y1="372.5" x2="220.5" y2="417.5" stroke="#ADAAAD" stroke-dasharray="3 3" clip-path="url(#ndclip)"/>
<line x1="220.5" y1="417.5" x2="179.5" y2="442.5" stroke="#ADAAAD" stroke-dasharray="3 3" clip-path="url(#ndclip)"/>
<line x1="179.5" y1="442.5" x2="171.5" y2="485.5" stroke="#ADAAAD" stroke-dasharray="3 3" clip-path="url(#ndclip)"/>
<line x1="171.5" y1="485.5" x2="191.5" y2="533.5" stroke="#ADAAAD" stroke-dasharray="3 3" clip-path="url(#ndclip)"/>
<line x1="-22.5" y1="598.5" x2="5.5" y2="552.5" stroke="#424142" clip-path="url(#ndclip)"/>
<line x1="5.5" y1="552.5" x2="7.5" y2="511.5" stroke="#424142" clip-path="url(#ndclip)"/>
<line x1="7.5" y1="511.5" x2="28.5" y2="491.5" stroke="#424142" clip-path="url(#ndclip)"/>
<line x1="28.5" y1="491.5" x2="104.5" y2="425.5" stroke="#424142" clip-path="url(#ndclip)"/>
<line x1="39.5" y1="40.5" x2="126.5" y2="164.5" stroke="#424142" clip-path="url(#ndclip)"/>
<line x1="126.5" y1="164.5" x2="179.5" y2="191.5" stroke="#424142" clip-path="url(#ndclip)"/>
<line x1="179.5" y1="191.5" x2="215.5" y2="270.5" stroke="#424142" clip-path="url(#ndclip)"/>
<line x1="-21.5" y1="125.5" x2="39.5" y2="148.5" stroke="#424142" clip-path="url(#ndclip)"/>
<line x1="39.5" y1="148.5" x2="59.5" y2="191.5" stroke="#424142" clip-path="url(#ndclip)"/>
<line x1="59.5" y1="191.5" x2="131.5" y2="236.5" stroke="#424142" clip-path="url(#ndclip)"/>
<line x1="131.5" y1="236.5" x2="187.5" y2="288.5" stroke="#424142" clip-path="url(#ndclip)"/>
<line x1="187.5" y1="288.5" x2="190.5" y2="321.5" stroke="#424142" clip-path="url(#ndclip)"/>
<line x1="104.5" y1="425.5" x2="106.5" y2="399.5" stroke="#424142" clip-path="url(#ndclip)"/>
<line x1="106.5" y1="399.5" x2="134.5" y2="382.5" stroke="#424142" clip-path="url(#ndclip)"/>
<line x1="134.5" y1="382.5" x2="146.5" y2="352.5" stroke="#424142" clip-path="url(#ndclip)"/>
<line x1="146.5" y1="352.5" x2="190.5" y2="321.5" stroke="#424142" clip-path="url(#ndclip)"/>
<line x1="215.5" y1="270.5" x2="219.5" y2="291.5" stroke="#424142" clip-path="url(#ndclip)"/>
<line x1="219.5" y1="291.5" x2="251.5" y2="316.5" stroke="#424142" clip-path="url(#ndclip)"/>
<line x1="190.5" y1="321.5" x2="237.5" y2="322.5" stroke="#424142" clip-path="url(#ndclip)"/>
<line x1="251.5" y1="316.5" x2="273.5" y2="322.5" stroke="#424142" clip-path="url(#ndclip)"/>
<line x1="273.5" y1="322.5" x2="273.5" y2="337.5" stroke="#424142" clip-path="url(#ndclip)"/>
<line x1="235.5" y1="323.5" x2="246.5" y2="310.5" stroke="#424142" clip-path="url(#ndclip)"/>
<line x1="273.5" y1="337.5" x2="292.5" y2="402.5" stroke="#424142" clip-path="url(#ndclip)"/>
<line x1="292.5" y1="402.5" x2="311.5" y2="421.5" stroke="#424142" clip-path="url(#ndclip)"/>
<line x1="311.5" y1="421.5" x2="427.5" y2="442.5" stroke="#424142" clip-path="url(#ndclip)"/>
<line x1="539.5" y1="463.5" x2="477.5" y2="437.5" stroke="#424142" clip-path="url(#ndclip)"/>
<line x1="477.5" y1="437.5" x2="455.5" y2="447.5" stroke="#424142" clip-path="url(#ndclip)"/>
<line x1="455.5" y1="447.5" x2="427.5" y2="442.5" stroke="#424142" clip-path="url(#ndclip)"/>
<line x1="527.5" y1="668.5" x2="483.5" y2="550.5" stroke="#424142" clip-path="url(#ndclip)"/>
<line x1="483.5" y1="550.5" x2="427.5" y2="442.5" stroke="#424142" clip-path="url(#ndclip)"/>
<line x1="132.5" y1="144.5" x2="148.5" y2="125.5" stroke="#424142" clip-path="url(#ndclip)"/>
<line x1="148.5" y1="125.5" x2="199.5" y2="105.5" stroke="#424142" clip-path="url(#ndclip)"/>
<line x1="199.5" y1="105.5" x2="260.5" y2="128.5" stroke="#424142" clip-path="url(#ndclip)"/>
<line x1="260.5" y1="128.5" x2="310.5" y2="161.5" stroke="#424142" clip-path="url(#ndclip)"/>
<line x1="310.5" y1="161.5" x2="318.5" y2="176.5" stroke="#424142" clip-path="url(#ndclip)"/>
<line x1="318.5" y1="176.5" x2="298.5" y2="255.5" stroke="#424142" clip-path="url(#ndclip)"/>
<line x1="298.5" y1="255.5" x2="303.5" y2="285.5" stroke="#424142" clip-path="url(#ndclip)"/>
<line x1="303.5" y1="285.5" x2="320.5" y2="304.5" stroke="#424142" clip-path="url(#ndclip)"/>
<line x1="320.5" y1="304.5" x2="318.5" y2="330.5" stroke="#424142" clip-path="url(#ndclip)"/>
<line x1="318.5" y1="330.5" x2="285.5" y2="386.5" stroke="#424142" clip-path="url(#ndclip)"/>
<line x1="285.5" y1="386.5" x2="246.5" y2="417.5" stroke="#424142" clip-path="url(#ndclip)"/>
<line x1="246.5" y1="417.5" x2="199.5" y2="520.5" stroke="#424142" clip-path="url(#ndclip)"/>
<line x1="199.5" y1="520.5" x2="178.5" y2="536.5" stroke="#424142" clip-path="url(#ndclip)"/>
<line x1="178.5" y1="536.5" x2="157.5" y2="534.5" stroke="#424142" clip-path="url(#ndclip)"/>
<line x1="157.5" y1="534.5" x2="124.5" y2="506.5" stroke="#424142" clip-path="url(#ndclip)"/>
<line x1="124.5" y1="506.5" x2="89.5" y2="441.5" stroke="#424142" clip-path="url(#ndclip)"/>
<line x1="106.5" y1="399.5" x2="56.5" y2="284.5" stroke="#424142" clip-path="url(#ndclip)"/>
<line x1="56.5" y1="284.5" x2="94.5" y2="168.5" stroke="#424142" clip-path="url(#ndclip)"/>
<line x1="94.5" y1="168.5" x2="132.5" y2="144.5" stroke="#424142" clip-path="url(#ndclip)"/>
<line x1="225.5" y1="577.5" x2="298.5" y2="302.5" stroke="#FFFF00" stroke-dasharray="3 3" clip-path="url(#ndclip)"/>
<line x1="123.5" y1="397.5" x2="396.5" y2="471.5" stroke="#FFFF00" stroke-dasharray="3 3" clip-path="url(#ndclip)"/>
<line x1="135.5" y1="384.5" x2="406.5" y2="457.5" stroke="#FFFF00" stroke-dasharray="3 3" clip-path="url(#ndclip)"/>
<line x1="114.5" y1="406.5" x2="379.5" y2="479.5" stroke="#FFFF00" stroke-dasharray="3 3" clip-path="url(#ndclip)"/>
<line x1="-96.5" y1="347.5" x2="94.5" y2="157.5" stroke="#FFFF00" stroke-dasharray="3 3" clip-path="url(#ndclip)"/>
<line x1="85.5" y1="77.5" x2="-167.5" y2="-9.5" stroke="#FFFF00" stroke-dasharray="3 3" clip-path="url(#ndclip)"/>
<line x1="370.5" y1="320.5" x2="152.5" y2="161.5" stroke="#FFFF00" stroke-dasharray="3 3" clip-path="url(#ndclip)"/>
<line x1="285.5" y1="372.5" x2="225.5" y2="112.5" stroke="#FFFF00" stroke-dasharray="3 3" clip-path="url(#ndclip)"/>
<circle cx="260.5" cy="434.5" r="129" fill="none" stroke="#00FFFF" stroke-dasharray="2 3" clip-path="url(#ndclip)"/>
<circle cx="258.5" cy="243.5" r="77" fill="none" stroke="#00FF00" stroke-dasharray="2 3" clip-path="url(#ndclip)"/>
<circle cx="385.5" cy="389.5" r="43" fill="none" stroke="#FFFF00" stroke-dasharray="2 3" clip-path="url(#ndclip)"/>
<circle cx="-2.5" cy="252.5" r="43" fill="none" stroke="#FFFF00" stroke-dasharray="2 3" clip-path="url(#ndclip)"/>
<circle cx="140.5" cy="489.5" r="43" fill="none" stroke="#FFFF00" stroke-dasharray="2 3" clip-path="url(#ndclip)"/>
<circle cx="320.5" cy="99.5" r="43" fill="none" stroke="#FFFF00" stroke-dasharray="2 3" clip-path="url(#ndclip)"/>
<circle cx="505.5" cy="414.5" r="43" fill="none" stroke="#FFFF00" stroke-dasharray="2 3" clip-path="url(#ndclip)"/>
<circle cx="413.5" cy="131.5" r="43" fill="none" stroke="#FFFF00" stroke-dasharray="2 3" clip-path="url(#ndclip)"/>
<circle cx="33.5" cy="123.5" r="43" fill="none" stroke="#FFFF00" stroke-dasharray="2 3" clip-path="url(#ndclip)"/>
<circle cx="46.5" cy="458.5" r="43" fill="none" stroke="#FFFF00" stroke-dasharray="2 3" clip-path="url(#ndclip)"/>
<circle cx="13.5" cy="430.5" r="43" fill="none" stroke="#FFFF00" stroke-dasharray="2 3" clip-path="url(#ndclip)"/>
<circle cx="491.5" cy="181.5" r="43" fill="none" stroke="#FFFF00" stroke-dasharray="2 3" clip-path="url(#ndclip)"/>
<circle cx="474.5" cy="496.5" r="43" fill="none" stroke="#FFFF00" stroke-dasharray="2 3" clip-path="url(#ndclip)"/>
<circle cx="465.5" cy="503.5" r="43" fill="none" stroke="#FFFF00" stroke-dasharray="2 3" clip-path="url(#ndclip)"/>
<circle cx="131.5" cy="49.5" r="43" fill="none" stroke="#FFFF00" stroke-dasharray="2 3" clip-path="url(#ndclip)"/>
<circle cx="179.5" cy="35.5" r="43" fill="none" stroke="#FFFF00" stroke-dasharray="2 3" clip-path="url(#ndclip)"/>
<circle cx="234.5" cy="584.5" r="43" fill="none" stroke="#FFFF00" stroke-dasharray="2 3" clip-path="url(#ndclip)"/>
<line x1="261.5" y1="439.5" x2="253.5" y2="469.5" stroke="#FFFFFF" clip-path="url(#ndclip)"/>
<line x1="259.5" y1="434.5" x2="232.5" y2="427.5" stroke="#FFFFFF" clip-path="url(#ndclip)"/>
<line x1="270.5" y1="420.5" x2="245.5" y2="413.5" stroke="#FFFFFF" clip-path="url(#ndclip)"/>
<line x1="246.5" y1="442.5" x2="227.5" y2="437.5" stroke="#FFFFFF" clip-path="url(#ndclip)"/>
<line x1="-1.5" y1="253.5" x2="-11.5" y2="263.5" stroke="#FFFFFF" clip-path="url(#ndclip)"/>
<line x1="46.5" y1="458.5" x2="53.5" y2="460.5" stroke="#FFFFFF" clip-path="url(#ndclip)"/>
<line x1="47.5" y1="461.5" x2="46.5" y2="466.5" stroke="#FFFFFF" clip-path="url(#ndclip)"/>
<line x1="-41.5" y1="34.5" x2="-29.5" y2="38.5" stroke="#FFFFFF" clip-path="url(#ndclip)"/>
<line x1="320.5" y1="98.5" x2="326.5" y2="106.5" stroke="#FFFFFF" clip-path="url(#ndclip)"/>
<line x1="632.5" y1="321.5" x2="639.5" y2="328.5" stroke="#FFFFFF" clip-path="url(#ndclip)"/>
<line x1="256.5" y1="244.5" x2="264.5" y2="250.5" stroke="#FFFFFF" clip-path="url(#ndclip)"/>
<line x1="260.5" y1="241.5" x2="273.5" y2="250.5" stroke="#FFFFFF" clip-path="url(#ndclip)"/>
<line x1="255.5" y1="243.5" x2="258.5" y2="256.5" stroke="#FFFFFF" clip-path="url(#ndclip)"/>
<line x1="-180.5" y1="405.5" x2="-175.5" y2="414.5" stroke="#FFFFFF" clip-path="url(#ndclip)"/>
<line x1="399.5" y1="-5.5" x2="399.5" y2="1.5" stroke="#FFFFFF" clip-path="url(#ndclip)"/>
<line x1="131.5" y1="186.5" x2="135.5" y2="194.5" stroke="#FFFFFF" clip-path="url(#ndclip)"/>
<line x1="322.5" y1="686.5" x2="320.5" y2="691.5" stroke="#FFFFFF" clip-path="url(#ndclip)"/>
<circle cx="260.5" cy="434.5" r="4" fill="none" stroke="#0000FF"/>
<rect x="260" y="434" width="1" height="1" fill="#0000FF"/>
<circle cx="258.5" cy="243.5" r="4" fill="none" stroke="#0000FF"/>
<rect x="258" y="243" width="1" height="1" fill="#0000FF"/>
<circle cx="385.5" cy="389.5" r="4" fill="none" stroke="#FF00FF"/>
<rect x="385" y="389" width="1" height="1" fill="#FF00FF"/>
<circle cx="-2.5" cy="252.5" r="4" fill="none" stroke="#FF00FF"/>
<rect x="-3" y="252" width="1" height="1" fill="#FF00FF"/>
<circle cx="140.5" cy="489.5" r="4" fill="none" stroke="#FF00FF"/>
<rect x="140" y="489" width="1" height="1" fill="#FF00FF"/>
<circle cx="320.5" cy="99.5" r="4" fill="none" stroke="#FF00FF"/>
<rect x="320" y="99" width="1" height="1" fill="#FF00FF"/>
<circle cx="413.5" cy="131.5" r="4" fill="none" stroke="#FF00FF"/>
<rect x="413" y="131" width="1" height="1" fill="#FF00FF"/>
<circle cx="46.5" cy="458.5" r="4" fill="none" stroke="#FF00FF"/>
<rect x="46" y="458" width="1" height="1" fill="#FF00FF"/>
<circle cx="13.5" cy="430.5" r="4" fill="none" stroke="#FF00FF"/>
<rect x="13" y="430" width="1" height="1" fill="#FF00FF"/>
<line x1="228.5" y1="505.5" x2="236.5" y2="513.5" stroke="#ADAAAD"/>
<line x1="228.5" y1="513.5" x2="236.5" y2="505.5" stroke="#ADAAAD"/>
<line x1="317.5" y1="446.5" x2="325.5" y2="454.5" stroke="#ADAAAD"/>
<line x1="317.5" y1="454.5" x2="325.5" y2="446.5" stroke="#ADAAAD"/>
<line x1="145.5" y1="524.5" x2="153.5" y2="532.5" stroke="#ADAAAD"/>
<line x1="145.5" y1="532.5" x2="153.5" y2="524.5" stroke="#ADAAAD"/>
<line x1="127.5" y1="182.5" x2="135.5" y2="190.5" stroke="#ADAAAD"/>
<line x1="127.5" y1="190.5" x2="135.5" y2="182.5" stroke="#ADAAAD"/>
<line x1="338.5" y1="96.5" x2="346.5" y2="104.5" stroke="#ADAAAD"/>
<line x1="338.5" y1="104.5" x2="346.5" y2="96.5" stroke="#ADAAAD"/>
<line x1="102.5" y1="263.5" x2="110.5" y2="271.5" stroke="#ADAAAD"/>
<line x1="102.5" y1="271.5" x2="110.5" y2="263.5" stroke="#ADAAAD"/>
<line x1="103.5" y1="152.5" x2="111.5" y2="160.5" stroke="#ADAAAD"/>
<line x1="103.5" y1="160.5" x2="111.5" y2="152.5" stroke="#ADAAAD"/>
<line x1="283.5" y1="463.5" x2="287.5" y2="467.5" stroke="#0000FF"/>
<line x1="287.5" y1="467.5" x2="283.5" y2="471.5" stroke="#0000FF"/>
<line x1="283.5" y1="471.5" x2="279.5" y2="467.5" stroke="#0000FF"/>
<line x1="279.5" y1="467.5" x2="283.5" y2="463.5" stroke="#0000FF"/>
<rect x="193" y="254" width="4" height="4" fill="#FFFF00"/>
<rect x="203" y="504" width="4" height="4" fill="#FFFF00"/>
<rect x="30" y="371" width="4" height="4" fill="#FFFF00"/>
<line x1="10.6097" y1="247.901" x2="-6.77701" y2="243.242" stroke="#FFFFFF"/>
<text x="27.5471" y="263.461" font-family="monospace" font-size="18" fill="#FFFFFF" transform="rotate(-75 27.5471 263.461)">0</text>
<text x="30.6529" y="251.87" font-family="monospace" font-size="18" fill="#FFFFFF" transform="rotate(-75 30.6529 251.87)">0</text>
<line x1="7.45623" y1="224.679" x2="-0.0613098" y2="221.943" stroke="#FFFFFF"/>
<line x1="24.7987" y1="208.917" x2="8.4852" y2="201.31" stroke="#FFFFFF"/>
<line x1="25.7257" y1="185.5" x2="18.7975" y2="181.5" stroke="#FFFFFF"/>
<line x1="45.5418" y1="172.989" x2="30.7971" y2="162.664" stroke="#FFFFFF"/>
<line x1="50.521" y1="150.089" x2="44.3926" y2="144.946" stroke="#FFFFFF"/>
<line x1="72.2086" y1="141.209" x2="59.4807" y2="128.481" stroke="#FFFFFF"/>
<text x="78.7797" y="163.336" font-family="monospace" font-size="18" fill="#FFFFFF" transform="rotate(-45 78.7797 163.336)">0</text>
<text x="87.2649" y="154.851" font-family="monospace" font-size="18" fill="#FFFFFF" transform="rotate(-45 87.2649 154.851)">3</text>
<line x1="81.0887" y1="119.521" x2="75.9464" y2="113.393" stroke="#FFFFFF"/>
<line x1="103.989" y1="114.542" x2="93.6644" y2="99.7971" stroke="#FFFFFF"/>
<line x1="116.5" y1="94.7257" x2="112.5" y2="87.7975" stroke="#FFFFFF"/>
<line x1="139.917" y1="93.7988" x2="132.31" y2="77.4852" stroke="#FFFFFF"/>
<line x1="155.679" y1="76.4562" x2="152.943" y2="68.9387" stroke="#FFFFFF"/>
<line x1="178.901" y1="79.6097" x2="174.242" y2="62.223" stroke="#FFFFFF"/>
<text x="173.211" y="102.241" font-family="monospace" font-size="18" fill="#FFFFFF" transform="rotate(-15 173.211 102.241)">0</text>
<text x="184.802" y="99.1353" font-family="monospace" font-size="18" fill="#FFFFFF" transform="rotate(-15 184.802 99.1353)">6</text>
<line x1="197.435" y1="65.2677" x2="196.046" y2="57.3892" stroke="#FFFFFF"/>
<line x1="219.757" y1="72.4057" x2="218.188" y2="54.4742" stroke="#FFFFFF"/>
<line x1="240.5" y1="61.5" x2="240.5" y2="53.5" stroke="#FFFFFF"/>
<line x1="261.243" y1="72.4057" x2="262.812" y2="54.4742" stroke="#FFFFFF"/>
<line x1="283.565" y1="65.2677" x2="284.954" y2="57.3892" stroke="#FFFFFF"/>
<line x1="302.099" y1="79.6097" x2="306.758" y2="62.223" stroke="#FFFFFF"/>
<text x="285.539" y="96.5471" font-family="monospace" font-size="18" fill="#FFFFFF" transform="rotate(15 285.539 96.5471)">0</text>
<text x="297.13" y="99.6529" font-family="monospace" font-size="18" fill="#FFFFFF" transform="rotate(15 297.13 99.6529)">9</text>
<line x1="325.321" y1="76.4562" x2="328.057" y2="68.9387" stroke="#FFFFFF"/>
<line x1="341.083" y1="93.7988" x2="348.69" y2="77.4852" stroke="#FFFFFF"/>
<line x1="364.5" y1="94.7257" x2="368.5" y2="87.7975" stroke="#FFFFFF"/>
<line x1="377.011" y1="114.542" x2="387.336" y2="99.7971" stroke="#FFFFFF"/>
<line x1="399.911" y1="119.521" x2="405.054" y2="113.393" stroke="#FFFFFF"/>
<line x1="408.791" y1="141.209" x2="421.519" y2="128.481" stroke="#FFFFFF"/>
<text x="385.664" y="147.78" font-family="monospace" font-size="18" fill="#FFFFFF" transform="rotate(45 385.664 147.78)">1</text>
<text x="394.149" y="156.265" font-family="monospace" font-size="18" fill="#FFFFFF" transform="rotate(45 394.149 156.265)">2</text>
<line x1="430.479" y1="150.089" x2="436.607" y2="144.946" stroke="#FFFFFF"/>
<line x1="435.458" y1="172.989" x2="450.203" y2="162.664" stroke="#FFFFFF"/>
<line x1="455.274" y1="185.5" x2="462.203" y2="181.5" stroke="#FFFFFF"/>
<line x1="456.201" y1="208.917" x2="472.515" y2="201.31" stroke="#FFFFFF"/>
<line x1="473.544" y1="224.679" x2="481.061" y2="221.943" stroke="#FFFFFF"/>
<line x1="470.39" y1="247.901" x2="487.777" y2="243.242" stroke="#FFFFFF"/>
<text x="446.759" y="242.211" font-family="monospace" font-size="18" fill="#FFFFFF" transform="rotate(75 446.759 242.211)">1</text>
<text x="449.865" y="253.802" font-family="monospace" font-size="18" fill="#FFFFFF" transform="rotate(75 449.865 253.802)">5</text>
<line x1="484.732" y1="266.435" x2="492.611" y2="265.046" stroke="#FFFFFF"/>
<line x1="477.594" y1="288.757" x2="495.526" y2="287.188" stroke="#FFFFFF"/>
<line x1="488.5" y1="309.5" x2="496.5" y2="309.5" stroke="#FFFFFF"/>
<line x1="477.594" y1="330.243" x2="495.526" y2="331.812" stroke="#FFFFFF"/>
<line x1="484.732" y1="352.565" x2="492.611" y2="353.954" stroke="#FFFFFF"/>
<line x1="470.39" y1="371.099" x2="487.777" y2="375.758" stroke="#FFFFFF"/>
<text x="452.453" y="354.539" font-family="monospace" font-size="18" fill="#FFFFFF" transform="rotate(105 452.453 354.539)">1</text>
<text x="449.347" y="366.13" font-family="monospace" font-size="18" fill="#FFFFFF" transform="rotate(105 449.347 366.13)">8</text>
<line x1="473.544" y1="394.321" x2="481.061" y2="397.057" stroke="#FFFFFF"/>
<line x1="456.201" y1="410.083" x2="472.515" y2="417.69" stroke="#FFFFFF"/>
<line x1="455.274" y1="433.5" x2="462.203" y2="437.5" stroke="#FFFFFF"/>
<line x1="435.458" y1="446.011" x2="450.203" y2="456.336" stroke="#FFFFFF"/>
<line x1="430.479" y1="468.911" x2="436.607" y2="474.054" stroke="#FFFFFF"/>
<line x1="408.791" y1="477.791" x2="421.519" y2="490.519" stroke="#FFFFFF"/>
<text x="401.22" y="454.664" font-family="monospace" font-size="18" fill="#FFFFFF" transform="rotate(135 401.22 454.664)">2</text>
<text x="392.735" y="463.149" font-family="monospace" font-size="18" fill="#FFFFFF" transform="rotate(135 392.735 463.149)">1</text>
<line x1="399.911" y1="499.479" x2="405.054" y2="505.607" stroke="#FFFFFF"/>
<line x1="377.011" y1="504.458" x2="387.336" y2="519.203" stroke="#FFFFFF"/>
<line x1="364.5" y1="524.274" x2="368.5" y2="531.203" stroke="#FFFFFF"/>
<line x1="341.083" y1="525.201" x2="348.69" y2="541.515" stroke="#FFFFFF"/>
<line x1="325.321" y1="542.544" x2="328.057" y2="550.061" stroke="#FFFFFF"/>
<line x1="302.099" y1="539.39" x2="306.758" y2="556.777" stroke="#FFFFFF"/>
<text x="306.789" y="515.759" font-family="monospace" font-size="18" fill="#FFFFFF" transform="rotate(165 306.789 515.759)">2</text>
<text x="295.198" y="518.865" font-family="monospace" font-size="18" fill="#FFFFFF" transform="rotate(165 295.198 518.865)">4</text>
<line x1="283.565" y1="553.732" x2="284.954" y2="561.611" stroke="#FFFFFF"/>
<line x1="261.243" y1="546.594" x2="262.812" y2="564.526" stroke="#FFFFFF"/>
<line x1="240.5" y1="557.5" x2="240.5" y2="565.5" stroke="#FFFFFF"/>
<line x1="219.757" y1="546.594" x2="218.188" y2="564.526" stroke="#FFFFFF"/>
<line x1="197.435" y1="553.732" x2="196.046" y2="561.611" stroke="#FFFFFF"/>
<line x1="178.901" y1="539.39" x2="174.242" y2="556.777" stroke="#FFFFFF"/>
<text x="194.461" y="521.453" font-family="monospace" font-size="18" fill="#FFFFFF" transform="rotate(-165 194.461 521.453)">2</text>
<text x="182.87" y="518.347" font-family="monospace" font-size="18" fill="#FFFFFF" transform="rotate(-165 182.87 518.347)">7</text>
<line x1="155.679" y1="542.544" x2="152.943" y2="550.061" stroke="#FFFFFF"/>
<line x1="139.917" y1="525.201" x2="132.31" y2="541.515" stroke="#FFFFFF"/>
<line x1="116.5" y1="524.274" x2="112.5" y2="531.203" stroke="#FFFFFF"/>
<line x1="103.989" y1="504.458" x2="93.6644" y2="519.203" stroke="#FFFFFF"/>
<line x1="81.0887" y1="499.479" x2="75.9464" y2="505.607" stroke="#FFFFFF"/>
<line x1="72.2086" y1="477.791" x2="59.4807" y2="490.519" stroke="#FFFFFF"/>
<text x="94.336" y="470.22" font-family="monospace" font-size="18" fill="#FFFFFF" transform="rotate(-135 94.336 470.22)">3</text>
<text x="85.8507" y="461.735" font-family="monospace" font-size="18" fill="#FFFFFF" transform="rotate(-135 85.8507 461.735)">0</text>
<line x1="50.521" y1="468.911" x2="44.3926" y2="474.054" stroke="#FFFFFF"/>
<line x1="45.5418" y1="446.011" x2="30.7971" y2="456.336" stroke="#FFFFFF"/>
<line x1="25.7257" y1="433.5" x2="18.7975" y2="437.5" stroke="#FFFFFF"/>
<line x1="24.7987" y1="410.083" x2="8.4852" y2="417.69" stroke="#FFFFFF"/>
<line x1="7.45622" y1="394.321" x2="-0.0613251" y2="397.057" stroke="#FFFFFF"/>
<line x1="10.6096" y1="371.099" x2="-6.77702" y2="375.758" stroke="#FFFFFF"/>
<text x="33.2411" y="375.789" font-family="monospace" font-size="18" fill="#FFFFFF" transform="rotate(-105 33.2411 375.789)">3</text>
<text x="30.1353" y="364.198" font-family="monospace" font-size="18" fill="#FFFFFF" transform="rotate(-105 30.1353 364.198)">3</text>
<line x1="-3.73233" y1="352.565" x2="-11.6108" y2="353.954" stroke="#FFFFFF"/>
<line x1="3.40566" y1="330.243" x2="-14.5258" y2="331.812" stroke="#FFFFFF"/>
<line x1="-7.5" y1="309.5" x2="-15.5" y2="309.5" stroke="#FFFFFF"/>
<line x1="3.40566" y1="288.757" x2="-14.5258" y2="287.188" stroke="#FFFFFF"/>
<line x1="-3.73232" y1="266.435" x2="-11.6108" y2="265.046" stroke="#FFFFFF"/>
<rect x="192" y="0" width="96" height="34" fill="#000000"/>
<polygon points="240,51 221,34 259,34 " fill="#000000" shape-rendering="crispEdges"/>
<line x1="192.5" y1="0.5" x2="288.5" y2="0.5" stroke="#ADAAAD"/>
<line x1="192.5" y1="0.5" x2="192.5" y2="34.5" stroke="#ADAAAD"/>
<line x1="288.5" y1="0.5" x2="288.5" y2="34.5" stroke="#ADAAAD"/>
<line x1="192.5" y1="34.5" x2="221.5" y2="34.5" stroke="#ADAAAD"/>
<line x1="221.5" y1="34.5" x2="240.5" y2="51.5" stroke="#ADAAAD"/>
<line x1="259.5" y1="34.5" x2="240.5" y2="51.5" stroke="#ADAAAD"/>
<line x1="288.5" y1="34.5" x2="259.5" y2="34.5" stroke="#ADAAAD"/>
<text x="208" y="27" font-family="monospace" font-size="28" fill="#FFFFFF">0</text>
<text x="230" y="27" font-family="monospace" font-size="28" fill="#FFFFFF">7</text>
<text x="252" y="27" font-family="monospace" font-size="28" fill="#FFFFFF">5</text>
<circle cx="240.5" cy="309.5" r="258" fill="none" stroke="#FFFFFF"/>
<circle cx="240.5" cy="309.5" r="193" fill="none" stroke="#ADAAAD"/>
<circle cx="240.5" cy="309.5" r="129" fill="none" stroke="#ADAAAD"/>
<circle cx="240.5" cy="309.5" r="64" fill="none" stroke="#ADAAAD"/>
<polygon points="0,293 240,309 0,309 " fill="#000000" shape-rendering="crispEdges"/>
<polygon points="480,293 240,309 480,309 " fill="#000000" shape-rendering="crispEdges"/>
<rect x="0" y="309" width="480" height="10" fill="#000000"/>
<polygon points="240.5,299.5 227.5,318.5 252.5,318.5 " fill="none" stroke="#FFFFFF"/>
<line x1="240.5" y1="319.5" x2="240.5" y2="97.5" stroke="#FF00FF"/>
<line x1="240.5" y1="97.5" x2="240.5" y2="51.5" stroke="#ADAAAD"/>
<line x1="152.5" y1="126.5" x2="128.5" y2="76.5" stroke="#00FF00"/>
<rect x="212" y="254" width="4" height="4" fill="#00FF00"/>
<line x1="240.5" y1="309.5" x2="311.5" y2="60.5" stroke="#FFFFFF"/>
<circle cx="222.5" cy="282.5" r="6.5" fill="#FFA600" shape-rendering="crispEdges"/>
<text x="234" y="288" font-family="monospace" font-size="18" fill="#FFA600">3</text>
<text x="246" y="288" font-family="monospace" font-size="18" fill="#FFA600">5</text>
<text x="258" y="288" font-family="monospace" font-size="18" fill="#FFA600">0</text>
<text x="264" y="246" font-family="monospace" font-size="9" fill="#0000FF">L</text>
<text x="270" y="246" font-family="monospace" font-size="9" fill="#0000FF">U</text>
<text x="276" y="246" font-family="monospace" font-size="9" fill="#0000FF">K</text>
<text x="264" y="255" font-family="monospace" font-size="9" fill="#ADAAAD">1</text>
<text x="270" y="255" font-family="monospace" font-size="9" fill="#ADAAAD">1</text>
<text x="276" y="255" font-family="monospace" font-size="9" fill="#ADAAAD">8</text>
<text x="282" y="255" font-family="monospace" font-size="9" fill="#ADAAAD">.</text>
<text x="288" y="255" font-family="monospace" font-size="9" fill="#ADAAAD">7</text>
<text x="311" y="92" font-family="monospace" font-size="9" fill="#FF00FF">I</text>
<text x="317" y="92" font-family="monospace" font-size="9" fill="#FF00FF">6</text>
<text x="323" y="92" font-family="monospace" font-size="9" fill="#FF00FF">9</text>
<text x="401" y="124" font-family="monospace" font-size="9" fill="#FF00FF">4</text>
<text x="407" y="124" font-family="monospace" font-size="9" fill="#FF00FF">5</text>
<text x="413" y="124" font-family="monospace" font-size="9" fill="#FF00FF">O</text>
<text x="419" y="124" font-family="monospace" font-size="9" fill="#FF00FF">H</text>
<text x="137" y="189" font-family="monospace" font-size="9" fill="#ADAAAD">U</text>
<text x="143" y="189" font-family="monospace" font-size="9" fill="#ADAAAD">S</text>
<text x="149" y="189" font-family="monospace" font-size="9" fill="#ADAAAD">-</text>
<text x="155" y="189" font-family="monospace" font-size="9" fill="#ADAAAD">1</text>
<text x="330" y="93" font-family="monospace" font-size="9" fill="#ADAAAD">U</text>
<text x="336" y="93" font-family="monospace" font-size="9" fill="#ADAAAD">S</text>
<text x="342" y="93" font-family="monospace" font-size="9" fill="#ADAAAD">-</text>
<text x="348" y="93" font-family="monospace" font-size="9" fill="#ADAAAD">1</text>
<text x="112" y="270" font-family="monospace" font-size="9" fill="#ADAAAD">U</text>
<text x="118" y="270" font-family="monospace" font-size="9" fill="#ADAAAD">S</text>
<text x="124" y="270" font-family="monospace" font-size="9" fill="#ADAAAD">-</text>
<text x="130" y="270" font-family="monospace" font-size="9" fill="#ADAAAD">3</text>
<text x="113" y="159" font-family="monospace" font-size="9" fill="#ADAAAD">U</text>
<text x="119" y="159" font-family="monospace" font-size="9" fill="#ADAAAD">S</text>
<text x="125" y="159" font-family="monospace" font-size="9" fill="#ADAAAD">-</text>
<text x="131" y="159" font-family="monospace" font-size="9" fill="#ADAAAD">9</text>
<text x="199" y="259" font-family="monospace" font-size="9" fill="#FFFF00">C</text>
<text x="205" y="259" font-family="monospace" font-size="9" fill="#FFFF00">I</text>
<text x="211" y="259" font-family="monospace" font-size="9" fill="#FFFF00">N</text>
<text x="217" y="259" font-family="monospace" font-size="9" fill="#FFFF00">C</text>
<text x="154" y="180" font-family="monospace" font-size="9" fill="#FFFFFF">7</text>
<text x="160" y="180" font-family="monospace" font-size="9" fill="#FFFFFF">1</text>
<text x="97" y="216" font-family="monospace" font-size="9" fill="#FFFFFF">7</text>
<text x="103" y="216" font-family="monospace" font-size="9" fill="#FFFFFF">5</text>
<text x="219" y="283" font-family="monospace" font-size="9" fill="#FFFFFF">7</text>
<text x="225" y="283" font-family="monospace" font-size="9" fill="#FFFFFF">4</text>
<text x="142" y="138" font-family="monospace" font-size="9" fill="#FFFFFF">2</text>
<text x="148" y="138" font-family="monospace" font-size="9" fill="#FFFFFF">7</text>
<text x="154" y="138" font-family="monospace" font-size="9" fill="#FFFFFF">5</text>
<text x="77" y="229" font-family="monospace" font-size="9" fill="#FFFFFF">2</text>
<text x="83" y="229" font-family="monospace" font-size="9" fill="#FFFFFF">7</text>
<text x="89" y="229" font-family="monospace" font-size="9" fill="#FFFFFF">5</text>
<text x="2" y="316" font-family="monospace" font-size="18" fill="#00FF00">3</text>
<text x="14" y="316" font-family="monospace" font-size="18" fill="#00FF00">9</text>
<text x="26" y="316" font-family="monospace" font-size="18" fill="#00FF00">.</text>
<text x="38" y="316" font-family="monospace" font-size="18" fill="#00FF00">1</text>
<text x="50" y="316" font-family="monospace" font-size="18" fill="#00FF00">0</text>
<text x="62" y="316" font-family="monospace" font-size="18" fill="#00FF00">3</text>
<text x="74" y="316" font-family="monospace" font-size="18" fill="#00FF00">1</text>
<text x="86" y="316" font-family="monospace" font-size="18" fill="#00FF00">N</text>
<text x="382" y="316" font-family="monospace" font-size="18" fill="#00FF00">8</text>
<text x="394" y="316" font-family="monospace" font-size="18" fill="#00FF00">4</text>
<text x="406" y="316" font-family="monospace" font-size="18" fill="#00FF00">.</text>
<text x="418" y="316" font-family="monospace" font-size="18" fill="#00FF00">5</text>
<text x="430" y="316" font-family="monospace" font-size="18" fill="#00FF00">1</text>
<text x="442" y="316" font-family="monospace" font-size="18" fill="#00FF00">2</text>
<text x="454" y="316" font-family="monospace" font-size="18" fill="#00FF00">0</text>
<text x="466" y="316" font-family="monospace" font-size="18" fill="#00FF00">W</text>
<text x="2" y="22" font-family="monospace" font-size="18" fill="#FFA600">P</text>
<text x="14" y="22" font-family="monospace" font-size="18" fill="#FFA600">R</text>
<text x="26" y="22" font-family="monospace" font-size="18" fill="#FFA600">O</text>
<text x="38" y="22" font-family="monospace" font-size="18" fill="#FFA600">X</text>
<text x="50" y="22" font-family="monospace" font-size="18" fill="#FFA600">I</text>
<text x="62" y="22" font-family="monospace" font-size="18" fill="#FFA600">M</text>
<text x="74" y="22" font-family="monospace" font-size="18" fill="#FFA600">I</text>
<text x="86" y="22" font-family="monospace" font-size="18" fill="#FFA600">T</text>
<text x="98" y="22" font-family="monospace" font-size="18" fill="#FFA600">Y</text>
<text x="418" y="42" font-family="monospace" font-size="18" fill="#ADAAAD">4</text>
<text x="430" y="42" font-family="monospace" font-size="18" fill="#ADAAAD">.</text>
<text x="442" y="42" font-family="monospace" font-size="18" fill="#ADAAAD">1</text>
<text x="454" y="42" font-family="monospace" font-size="18" fill="#ADAAAD">2</text>
<text x="466" y="42" font-family="monospace" font-size="18" fill="#ADAAAD">V</text>
</g>
</g></svg>
