<svg viewBox="0 0 1232 532" xmlns="http://www.w3.org/2000/svg" font-family="Helvetica,Arial,sans-serif">
<defs><clipPath id="ndframe"><rect x="292" y="46" width="648" height="430"/></clipPath><clipPath id="ndclip"><circle cx="240" cy="309" r="258"/></clipPath></defs>
<rect x="0" y="0" width="1232" height="532" fill="#000000"/>
<g clip-path="url(#ndframe)"><g transform="translate(292 46) scale(1.35)" opacity="0.7">
<rect x="0" y="0" width="480" height="319" fill="#000000"/>
<line x1="534.5" y1="10.5" x2="318.5" y2="150.5" stroke="#00AAFF" clip-path="url(#ndclip)"/>
<line x1="-95.5" y1="509.5" x2="-4.5" y2="375.5" stroke="#D68608" clip-path="url(#ndclip)"/>
<line x1="-4.5" y1="375.5" x2="281.5" y2="182.5" stroke="#D68608" clip-path="url(#ndclip)"/>
<line x1="281.5" y1="182.5" x2="223.5" y2="290.5" stroke="#D68608" clip-path="url(#ndclip)"/>
<line x1="223.5" y1="290.5" x2="26.5" y2="366.5" stroke="#D68608" clip-path="url(#ndclip)"/>
<line x1="26.5" y1="366.5" x2="-48.5" y2="653.5" stroke="#D68608" clip-path="url(#ndclip)"/>
<line x1="530.5" y1="18.5" x2="281.5" y2="182.5" stroke="#ADAAAD" stroke-dasharray="3 3" clip-path="url(#ndclip)"/>
<line x1="27.5" y1="342.5" x2="-129.5" y2="319.5" stroke="#ADAAAD" stroke-dasharray="3 3" clip-path="url(#ndclip)"/>
<line x1="463.5" y1="55.5" x2="532.5" y2="75.5" stroke="#424142" clip-path="url(#ndclip)"/>
<line x1="132.5" y1="60.5" x2="260.5" y2="4.5" stroke="#424142" clip-path="url(#ndclip)"/>
<line x1="260.5" y1="4.5" x2="463.5" y2="55.5" stroke="#424142" clip-path="url(#ndclip)"/>
<line x1="25.5" y1="-248.5" x2="132.5" y2="60.5" stroke="#424142" clip-path="url(#ndclip)"/>
<line x1="132.5" y1="60.5" x2="78.5" y2="132.5" stroke="#424142" clip-path="url(#ndclip)"/>
<line x1="78.5" y1="132.5" x2="239.5" y2="260.5" stroke="#424142" clip-path="url(#ndclip)"/>
<line x1="260.5" y1="288.5" x2="532.5" y2="75.5" stroke="#424142" clip-path="url(#ndclip)"/>
<line x1="239.5" y1="260.5" x2="260.5" y2="288.5" stroke="#424142" clip-path="url(#ndclip)"/>
<line x1="260.5" y1="288.5" x2="262.5" y2="303.5" stroke="#424142" clip-path="url(#ndclip)"/>
<line x1="262.5" y1="303.5" x2="265.5" y2="322.5" stroke="#424142" clip-path="url(#ndclip)"/>
<line x1="-188.5" y1="87.5" x2="132.5" y2="60.5" stroke="#424142" clip-path="url(#ndclip)"/>
<line x1="-37.5" y1="473.5" x2="262.5" y2="303.5" stroke="#424142" clip-path="url(#ndclip)"/>
<line x1="-102.5" y1="450.5" x2="203.5" y2="251.5" stroke="#424142" clip-path="url(#ndclip)"/>
<line x1="203.5" y1="251.5" x2="435.5" y2="-14.5" stroke="#424142" clip-path="url(#ndclip)"/>
<line x1="74.5" y1="298.5" x2="78.5" y2="135.5" stroke="#424142" clip-path="url(#ndclip)"/>
<line x1="-92.5" y1="438.5" x2="2.5" y2="344.5" stroke="#424142" clip-path="url(#ndclip)"/>
<line x1="-25.5" y1="471.5" x2="261.5" y2="293.5" stroke="#424142" clip-path="url(#ndclip)"/>
<line x1="253.5" y1="259.5" x2="246.5" y2="213.5" stroke="#424142" clip-path="url(#ndclip)"/>
<line x1="35.5" y1="79.5" x2="202.5" y2="209.5" stroke="#424142" clip-path="url(#ndclip)"/>
<line x1="-243.5" y1="500.5" x2="23.5" y2="442.5" stroke="#FFFF00" stroke-dasharray="3 3" clip-path="url(#ndclip)"/>
<line x1="-212.5" y1="387.5" x2="-11.5" y2="563.5" stroke="#FFFF00" stroke-dasharray="3 3" clip-path="url(#ndclip)"/>
<line x1="44.5" y1="313.5" x2="302.5" y2="247.5" stroke="#FFFF00" stroke-dasharray="3 3" clip-path="url(#ndclip)"/>
<line x1="25.5" y1="322.5" x2="295.5" y2="253.5" stroke="#FFFF00" stroke-dasharray="3 3" clip-path="url(#ndclip)"/>
<line x1="10.5" y1="329.5" x2="287.5" y2="261.5" stroke="#FFFF00" stroke-dasharray="3 3" clip-path="url(#ndclip)"/>
<line x1="118.5" y1="156.5" x2="215.5" y2="409.5" stroke="#FFFF00" stroke-dasharray="3 3" clip-path="url(#ndclip)"/>
<line x1="226.5" y1="176.5" x2="429.5" y2="-4.5" stroke="#FFFF00" stroke-dasharray="3 3" clip-path="url(#ndclip)"/>
<line x1="243.5" y1="-13.5" x2="413.5" y2="194.5" stroke="#FFFF00" stroke-dasharray="3 3" clip-path="url(#ndclip)"/>
<line x1="141.5" y1="-133.5" x2="312.5" y2="83.5" stroke="#FFFF00" stroke-dasharray="3 3" clip-path="url(#ndclip)"/>
<circle cx="159.5" cy="289.5" r="129" fill="none" stroke="#00FFFF" stroke-dasharray="2 3" clip-path="url(#ndclip)"/>
<circle cx="327.5" cy="87.5" r="77" fill="none" stroke="#00FF00" stroke-dasharray="2 3" clip-path="url(#ndclip)"/>
<circle cx="168.5" cy="366.5" r="43" fill="none" stroke="#FFFF00" stroke-dasharray="2 3" clip-path="url(#ndclip)"/>
<circle cx="141.5" cy="34.5" r="43" fill="none" stroke="#FFFF00" stroke-dasharray="2 3" clip-path="url(#ndclip)"/>
<circle cx="231.5" cy="460.5" r="43" fill="none" stroke="#FFFF00" stroke-dasharray="2 3" clip-path="url(#ndclip)"/>
<circle cx="373.5" cy="377.5" r="43" fill="none" stroke="#FFFF00" stroke-dasharray="2 3" clip-path="url(#ndclip)"/>
<circle cx="311.5" cy="447.5" r="43" fill="none" stroke="#FFFF00" stroke-dasharray="2 3" clip-path="url(#ndclip)"/>
<circle cx="448.5" cy="221.5" r="43" fill="none" stroke="#FFFF00" stroke-dasharray="2 3" clip-path="url(#ndclip)"/>
<circle cx="451.5" cy="151.5" r="43" fill="none" stroke="#FFFF00" stroke-dasharray="2 3" clip-path="url(#ndclip)"/>
<circle cx="324.5" cy="494.5" r="43" fill="none" stroke="#FFFF00" stroke-dasharray="2 3" clip-path="url(#ndclip)"/>
<circle cx="44.5" cy="418.5" r="43" fill="none" stroke="#FFFF00" stroke-dasharray="2 3" clip-path="url(#ndclip)"/>
<circle cx="126.5" cy="499.5" r="43" fill="none" stroke="#FFFF00" stroke-dasharray="2 3" clip-path="url(#ndclip)"/>
<circle cx="477.5" cy="229.5" r="43" fill="none" stroke="#FFFF00" stroke-dasharray="2 3" clip-path="url(#ndclip)"/>
<circle cx="164.5" cy="551.5" r="43" fill="none" stroke="#FFFF00" stroke-dasharray="2 3" clip-path="url(#ndclip)"/>
<circle cx="504.5" cy="222.5" r="43" fill="none" stroke="#FFFF00" stroke-dasharray="2 3" clip-path="url(#ndclip)"/>
<circle cx="178.5" cy="575.5" r="43" fill="none" stroke="#FFFF00" stroke-dasharray="2 3" clip-path="url(#ndclip)"/>
<circle cx="519.5" cy="258.5" r="43" fill="none" stroke="#FFFF00" stroke-dasharray="2 3" clip-path="url(#ndclip)"/>
<line x1="301.5" y1="621.5" x2="296.5" y2="620.5" stroke="#FFFFFF" clip-path="url(#ndclip)"/>
<line x1="44.5" y1="418.5" x2="38.5" y2="421.5" stroke="#FFFFFF" clip-path="url(#ndclip)"/>
<line x1="311.5" y1="447.5" x2="302.5" y2="449.5" stroke="#FFFFFF" clip-path="url(#ndclip)"/>
<line x1="373.5" y1="377.5" x2="368.5" y2="383.5" stroke="#FFFFFF" clip-path="url(#ndclip)"/>
<line x1="-106.5" y1="472.5" x2="-108.5" y2="491.5" stroke="#FFFFFF" clip-path="url(#ndclip)"/>
<line x1="-109.5" y1="471.5" x2="-128.5" y2="475.5" stroke="#FFFFFF" clip-path="url(#ndclip)"/>
<line x1="-112.5" y1="475.5" x2="-121.5" y2="467.5" stroke="#FFFFFF" clip-path="url(#ndclip)"/>
<line x1="141.5" y1="34.5" x2="133.5" y2="40.5" stroke="#FFFFFF" clip-path="url(#ndclip)"/>
<line x1="477.5" y1="230.5" x2="476.5" y2="239.5" stroke="#FFFFFF" clip-path="url(#ndclip)"/>
<line x1="519.5" y1="258.5" x2="514.5" y2="264.5" stroke="#FFFFFF" clip-path="url(#ndclip)"/>
<line x1="513.5" y1="483.5" x2="511.5" y2="492.5" stroke="#FFFFFF" clip-path="url(#ndclip)"/>
<line x1="628.5" y1="-38.5" x2="617.5" y2="-39.5" stroke="#FFFFFF" clip-path="url(#ndclip)"/>
<line x1="-91.5" y1="175.5" x2="-99.5" y2="177.5" stroke="#FFFFFF" clip-path="url(#ndclip)"/>
<line x1="173.5" y1="281.5" x2="161.5" y2="284.5" stroke="#FFFFFF" clip-path="url(#ndclip)"/>
<line x1="160.5" y1="288.5" x2="136.5" y2="295.5" stroke="#FFFFFF" clip-path="url(#ndclip)"/>
<line x1="149.5" y1="295.5" x2="119.5" y2="303.5" stroke="#FFFFFF" clip-path="url(#ndclip)"/>
<line x1="166.5" y1="283.5" x2="160.5" y2="267.5" stroke="#FFFFFF" clip-path="url(#ndclip)"/>
<line x1="327.5" y1="86.5" x2="313.5" y2="98.5" stroke="#FFFFFF" clip-path="url(#ndclip)"/>
<line x1="328.5" y1="90.5" x2="319.5" y2="80.5" stroke="#FFFFFF" clip-path="url(#ndclip)"/>
<line x1="-72.5" y1="-62.5" x2="-81.5" y2="-62.5" stroke="#FFFFFF" clip-path="url(#ndclip)"/>
<line x1="448.5" y1="221.5" x2="439.5" y2="224.5" stroke="#FFFFFF" clip-path="url(#ndclip)"/>
<line x1="20.5" y1="-28.5" x2="12.5" y2="-27.5" stroke="#FFFFFF" clip-path="url(#ndclip)"/>
<line x1="227.5" y1="-24.5" x2="214.5" y2="-41.5" stroke="#FFFFFF" clip-path="url(#ndclip)"/>
<circle cx="159.5" cy="289.5" r="4" fill="none" stroke="#0000FF"/>
<rect x="159" y="289" width="1" height="1" fill="#0000FF"/>
<circle cx="327.5" cy="87.5" r="4" fill="none" stroke="#FF00FF"/>
<rect x="327" y="87" width="1" height="1" fill="#FF00FF"/>
<circle cx="168.5" cy="366.5" r="4" fill="none" stroke="#FF00FF"/>
<rect x="168" y="366" width="1" height="1" fill="#FF00FF"/>
<circle cx="231.5" cy="460.5" r="4" fill="none" stroke="#FF00FF"/>
<rect x="231" y="460" width="1" height="1" fill="#FF00FF"/>
<circle cx="373.5" cy="377.5" r="4" fill="none" stroke="#FF00FF"/>
<rect x="373" y="377" width="1" height="1" fill="#FF00FF"/>
<circle cx="311.5" cy="447.5" r="4" fill="none" stroke="#FF00FF"/>
<rect x="311" y="447" width="1" height="1" fill="#FF00FF"/>
<circle cx="448.5" cy="221.5" r="4" fill="none" stroke="#FF00FF"/>
<rect x="448" y="221" width="1" height="1" fill="#FF00FF"/>
<circle cx="324.5" cy="494.5" r="4" fill="none" stroke="#FF00FF"/>
<rect x="324" y="494" width="1" height="1" fill="#FF00FF"/>
<circle cx="44.5" cy="418.5" r="4" fill="none" stroke="#FF00FF"/>
<rect x="44" y="418" width="1" height="1" fill="#FF00FF"/>
<circle cx="126.5" cy="499.5" r="4" fill="none" stroke="#FF00FF"/>
<rect x="126" y="499" width="1" height="1" fill="#FF00FF"/>
<circle cx="477.5" cy="229.5" r="4" fill="none" stroke="#FF00FF"/>
<rect x="477" y="229" width="1" height="1" fill="#FF00FF"/>
<circle cx="164.5" cy="551.5" r="4" fill="none" stroke="#FF00FF"/>
<rect x="164" y="551" width="1" height="1" fill="#FF00FF"/>
<line x1="360.5" y1="142.5" x2="368.5" y2="150.5" stroke="#ADAAAD"/>
<line x1="360.5" y1="150.5" x2="368.5" y2="142.5" stroke="#ADAAAD"/>
<line x1="213.5" y1="266.5" x2="221.5" y2="274.5" stroke="#ADAAAD"/>
<line x1="213.5" y1="274.5" x2="221.5" y2="266.5" stroke="#ADAAAD"/>
<line x1="108.5" y1="499.5" x2="116.5" y2="507.5" stroke="#ADAAAD"/>
<line x1="108.5" y1="507.5" x2="116.5" y2="499.5" stroke="#ADAAAD"/>
<line x1="390.5" y1="189.5" x2="398.5" y2="197.5" stroke="#ADAAAD"/>
<line x1="390.5" y1="197.5" x2="398.5" y2="189.5" stroke="#ADAAAD"/>
<line x1="80.5" y1="356.5" x2="88.5" y2="364.5" stroke="#ADAAAD"/>
<line x1="80.5" y1="364.5" x2="88.5" y2="356.5" stroke="#ADAAAD"/>
<line x1="147.5" y1="467.5" x2="155.5" y2="475.5" stroke="#ADAAAD"/>
<line x1="147.5" y1="475.5" x2="155.5" y2="467.5" stroke="#ADAAAD"/>
<line x1="219.5" y1="208.5" x2="227.5" y2="216.5" stroke="#ADAAAD"/>
<line x1="219.5" y1="216.5" x2="227.5" y2="208.5" stroke="#ADAAAD"/>
<line x1="331.5" y1="303.5" x2="339.5" y2="311.5" stroke="#ADAAAD"/>
<line x1="331.5" y1="311.5" x2="339.5" y2="303.5" stroke="#ADAAAD"/>
<line x1="75.5" y1="366.5" x2="83.5" y2="374.5" stroke="#ADAAAD"/>
<line x1="75.5" y1="374.5" x2="83.5" y2="366.5" stroke="#ADAAAD"/>
<line x1="259.5" y1="232.5" x2="267.5" y2="240.5" stroke="#ADAAAD"/>
<line x1="259.5" y1="240.5" x2="267.5" y2="232.5" stroke="#ADAAAD"/>
<line x1="307.5" y1="226.5" x2="315.5" y2="234.5" stroke="#ADAAAD"/>
<line x1="307.5" y1="234.5" x2="315.5" y2="226.5" stroke="#ADAAAD"/>
<line x1="272.5" y1="443.5" x2="280.5" y2="451.5" stroke="#ADAAAD"/>
<line x1="272.5" y1="451.5" x2="280.5" y2="443.5" stroke="#ADAAAD"/>
<line x1="335.5" y1="276.5" x2="343.5" y2="284.5" stroke="#ADAAAD"/>
<line x1="335.5" y1="284.5" x2="343.5" y2="276.5" stroke="#ADAAAD"/>
<line x1="155.5" y1="146.5" x2="163.5" y2="154.5" stroke="#ADAAAD"/>
<line x1="155.5" y1="154.5" x2="163.5" y2="146.5" stroke="#ADAAAD"/>
<line x1="136.5" y1="108.5" x2="144.5" y2="116.5" stroke="#ADAAAD"/>
<line x1="136.5" y1="116.5" x2="144.5" y2="108.5" stroke="#ADAAAD"/>
<line x1="331.5" y1="210.5" x2="339.5" y2="218.5" stroke="#ADAAAD"/>
<line x1="331.5" y1="218.5" x2="339.5" y2="210.5" stroke="#ADAAAD"/>
<line x1="27.5" y1="272.5" x2="35.5" y2="280.5" stroke="#ADAAAD"/>
<line x1="27.5" y1="280.5" x2="35.5" y2="272.5" stroke="#ADAAAD"/>
<line x1="457.5" y1="178.5" x2="465.5" y2="186.5" stroke="#ADAAAD"/>
<line x1="457.5" y1="186.5" x2="465.5" y2="178.5" stroke="#ADAAAD"/>
<line x1="129.5" y1="323.5" x2="137.5" y2="331.5" stroke="#ADAAAD"/>
<line x1="129.5" y1="331.5" x2="137.5" y2="323.5" stroke="#ADAAAD"/>
<line x1="113.5" y1="509.5" x2="117.5" y2="513.5" stroke="#0000FF"/>
<line x1="117.5" y1="513.5" x2="113.5" y2="517.5" stroke="#0000FF"/>
<line x1="113.5" y1="517.5" x2="109.5" y2="513.5" stroke="#0000FF"/>
<line x1="109.5" y1="513.5" x2="113.5" y2="509.5" stroke="#0000FF"/>
<line x1="328.5" y1="83.5" x2="332.5" y2="87.5" stroke="#0000FF"/>
<line x1="332.5" y1="87.5" x2="328.5" y2="91.5" stroke="#0000FF"/>
<line x1="328.5" y1="91.5" x2="324.5" y2="87.5" stroke="#0000FF"/>
<line x1="324.5" y1="87.5" x2="328.5" y2="83.5" stroke="#0000FF"/>
<rect x="202" y="216" width="4" height="4" fill="#FFFF00"/>
<rect x="58" y="489" width="4" height="4" fill="#FFFF00"/>
<rect x="413" y="195" width="4" height="4" fill="#FFFF00"/>
<rect x="386" y="339" width="4" height="4" fill="#FFFF00"/>
<rect x="344" y="351" width="4" height="4" fill="#FFFF00"/>
<line x1="240.5" y1="71.5" x2="240.5" y2="53.5" stroke="#FFFFFF"/>
<text x="229" y="92" font-family="monospace" font-size="18" fill="#FFFFFF">0</text>
<text x="241" y="92" font-family="monospace" font-size="18" fill="#FFFFFF">0</text>
<line x1="262.115" y1="62.4437" x2="262.812" y2="54.4742" stroke="#FFFFFF"/>
<line x1="281.828" y1="75.1158" x2="284.954" y2="57.3892" stroke="#FFFFFF"/>
<line x1="304.687" y1="69.9504" x2="306.758" y2="62.223" stroke="#FFFFFF"/>
<line x1="321.901" y1="85.8532" x2="328.057" y2="68.9387" stroke="#FFFFFF"/>
<line x1="345.309" y1="84.7357" x2="348.69" y2="77.4852" stroke="#FFFFFF"/>
<line x1="359.5" y1="103.386" x2="368.5" y2="87.7975" stroke="#FFFFFF"/>
<text x="338.974" y="115.572" font-family="monospace" font-size="18" fill="#FFFFFF" transform="rotate(30 338.974 115.572)">0</text>
<text x="349.366" y="121.572" font-family="monospace" font-size="18" fill="#FFFFFF" transform="rotate(30 349.366 121.572)">3</text>
<line x1="382.747" y1="106.35" x2="387.336" y2="99.7971" stroke="#FFFFFF"/>
<line x1="393.483" y1="127.181" x2="405.054" y2="113.393" stroke="#FFFFFF"/>
<line x1="415.862" y1="134.138" x2="421.519" y2="128.481" stroke="#FFFFFF"/>
<line x1="422.819" y1="156.517" x2="436.607" y2="144.946" stroke="#FFFFFF"/>
<line x1="443.65" y1="167.253" x2="450.203" y2="162.664" stroke="#FFFFFF"/>
<line x1="446.614" y1="190.5" x2="462.203" y2="181.5" stroke="#FFFFFF"/>
<text x="422.428" y="190.974" font-family="monospace" font-size="18" fill="#FFFFFF" transform="rotate(60 422.428 190.974)">0</text>
<text x="428.428" y="201.366" font-family="monospace" font-size="18" fill="#FFFFFF" transform="rotate(60 428.428 201.366)">6</text>
<line x1="465.264" y1="204.691" x2="472.515" y2="201.31" stroke="#FFFFFF"/>
<line x1="464.147" y1="228.099" x2="481.061" y2="221.943" stroke="#FFFFFF"/>
<line x1="480.05" y1="245.313" x2="487.777" y2="243.242" stroke="#FFFFFF"/>
<line x1="474.884" y1="268.172" x2="492.611" y2="265.046" stroke="#FFFFFF"/>
<line x1="487.556" y1="287.885" x2="495.526" y2="287.188" stroke="#FFFFFF"/>
<line x1="478.5" y1="309.5" x2="496.5" y2="309.5" stroke="#FFFFFF"/>
<text x="457" y="298" font-family="monospace" font-size="18" fill="#FFFFFF" transform="rotate(90 457 298)">0</text>
<text x="457" y="310" font-family="monospace" font-size="18" fill="#FFFFFF" transform="rotate(90 457 310)">9</text>
<line x1="487.556" y1="331.115" x2="495.526" y2="331.812" stroke="#FFFFFF"/>
<line x1="474.884" y1="350.828" x2="492.611" y2="353.954" stroke="#FFFFFF"/>
<line x1="480.05" y1="373.687" x2="487.777" y2="375.758" stroke="#FFFFFF"/>
<line x1="464.147" y1="390.901" x2="481.061" y2="397.057" stroke="#FFFFFF"/>
<line x1="465.264" y1="414.309" x2="472.515" y2="417.69" stroke="#FFFFFF"/>
<line x1="446.614" y1="428.5" x2="462.203" y2="437.5" stroke="#FFFFFF"/>
<text x="433.428" y="407.974" font-family="monospace" font-size="18" fill="#FFFFFF" transform="rotate(120 433.428 407.974)">1</text>
<text x="427.428" y="418.366" font-family="monospace" font-size="18" fill="#FFFFFF" transform="rotate(120 427.428 418.366)">2</text>
<line x1="443.65" y1="451.747" x2="450.203" y2="456.336" stroke="#FFFFFF"/>
<line x1="422.819" y1="462.483" x2="436.607" y2="474.054" stroke="#FFFFFF"/>
<line x1="415.862" y1="484.862" x2="421.519" y2="490.519" stroke="#FFFFFF"/>
<line x1="393.483" y1="491.819" x2="405.054" y2="505.607" stroke="#FFFFFF"/>
<line x1="382.747" y1="512.65" x2="387.336" y2="519.203" stroke="#FFFFFF"/>
<line x1="359.5" y1="515.614" x2="368.5" y2="531.203" stroke="#FFFFFF"/>
<text x="358.026" y="491.428" font-family="monospace" font-size="18" fill="#FFFFFF" transform="rotate(150 358.026 491.428)">1</text>
<text x="347.634" y="497.428" font-family="monospace" font-size="18" fill="#FFFFFF" transform="rotate(150 347.634 497.428)">5</text>
<line x1="345.309" y1="534.264" x2="348.69" y2="541.515" stroke="#FFFFFF"/>
<line x1="321.901" y1="533.147" x2="328.057" y2="550.061" stroke="#FFFFFF"/>
<line x1="304.687" y1="549.05" x2="306.758" y2="556.777" stroke="#FFFFFF"/>
<line x1="281.828" y1="543.884" x2="284.954" y2="561.611" stroke="#FFFFFF"/>
<line x1="262.115" y1="556.556" x2="262.812" y2="564.526" stroke="#FFFFFF"/>
<line x1="240.5" y1="547.5" x2="240.5" y2="565.5" stroke="#FFFFFF"/>
<text x="251" y="526" font-family="monospace" font-size="18" fill="#FFFFFF" transform="rotate(180 251 526)">1</text>
<text x="239" y="526" font-family="monospace" font-size="18" fill="#FFFFFF" transform="rotate(180 239 526)">8</text>
<line x1="218.885" y1="556.556" x2="218.188" y2="564.526" stroke="#FFFFFF"/>
<line x1="199.172" y1="543.884" x2="196.046" y2="561.611" stroke="#FFFFFF"/>
<line x1="176.313" y1="549.05" x2="174.242" y2="556.777" stroke="#FFFFFF"/>
<line x1="159.099" y1="533.147" x2="152.943" y2="550.061" stroke="#FFFFFF"/>
<line x1="135.691" y1="534.264" x2="132.31" y2="541.515" stroke="#FFFFFF"/>
<line x1="121.5" y1="515.614" x2="112.5" y2="531.203" stroke="#FFFFFF"/>
<text x="141.026" y="502.428" font-family="monospace" font-size="18" fill="#FFFFFF" transform="rotate(-150 141.026 502.428)">2</text>
<text x="130.634" y="496.428" font-family="monospace" font-size="18" fill="#FFFFFF" transform="rotate(-150 130.634 496.428)">1</text>
<line x1="98.2531" y1="512.65" x2="93.6644" y2="519.203" stroke="#FFFFFF"/>
<line x1="87.5166" y1="491.819" x2="75.9464" y2="505.607" stroke="#FFFFFF"/>
<line x1="65.1375" y1="484.862" x2="59.4807" y2="490.519" stroke="#FFFFFF"/>
<line x1="58.1814" y1="462.483" x2="44.3926" y2="474.054" stroke="#FFFFFF"/>
<line x1="37.3503" y1="451.747" x2="30.7971" y2="456.336" stroke="#FFFFFF"/>
<line x1="34.3859" y1="428.5" x2="18.7975" y2="437.5" stroke="#FFFFFF"/>
<text x="57.5725" y="427.026" font-family="monospace" font-size="18" fill="#FFFFFF" transform="rotate(-120 57.5725 427.026)">2</text>
<text x="51.5725" y="416.634" font-family="monospace" font-size="18" fill="#FFFFFF" transform="rotate(-120 51.5725 416.634)">4</text>
<line x1="15.7357" y1="414.309" x2="8.4852" y2="417.69" stroke="#FFFFFF"/>
<line x1="16.8531" y1="390.901" x2="-0.0613251" y2="397.057" stroke="#FFFFFF"/>
<line x1="0.950384" y1="373.687" x2="-6.77702" y2="375.758" stroke="#FFFFFF"/>
<line x1="6.11575" y1="350.828" x2="-11.6108" y2="353.954" stroke="#FFFFFF"/>
<line x1="-6.55629" y1="331.115" x2="-14.5258" y2="331.812" stroke="#FFFFFF"/>
<line x1="2.5" y1="309.5" x2="-15.5" y2="309.5" stroke="#FFFFFF"/>
<text x="23" y="320" font-family="monospace" font-size="18" fill="#FFFFFF" transform="rotate(-90 23 320)">2</text>
<text x="23" y="308" font-family="monospace" font-size="18" fill="#FFFFFF" transform="rotate(-90 23 308)">7</text>
<line x1="-6.55629" y1="287.885" x2="-14.5258" y2="287.188" stroke="#FFFFFF"/>
<line x1="6.11576" y1="268.172" x2="-11.6108" y2="265.046" stroke="#FFFFFF"/>
<line x1="0.950398" y1="245.313" x2="-6.77701" y2="243.242" stroke="#FFFFFF"/>
<line x1="16.8532" y1="228.099" x2="-0.0613098" y2="221.943" stroke="#FFFFFF"/>
<line x1="15.7357" y1="204.691" x2="8.4852" y2="201.31" stroke="#FFFFFF"/>
<line x1="34.3859" y1="190.5" x2="18.7975" y2="181.5" stroke="#FFFFFF"/>
<text x="46.5725" y="210.026" font-family="monospace" font-size="18" fill="#FFFFFF" transform="rotate(-60 46.5725 210.026)">3</text>
<text x="52.5725" y="199.634" font-family="monospace" font-size="18" fill="#FFFFFF" transform="rotate(-60 52.5725 199.634)">0</text>
<line x1="37.3503" y1="167.253" x2="30.7971" y2="162.664" stroke="#FFFFFF"/>
<line x1="58.1814" y1="156.517" x2="44.3926" y2="144.946" stroke="#FFFFFF"/>
<line x1="65.1375" y1="134.138" x2="59.4806" y2="128.481" stroke="#FFFFFF"/>
<line x1="87.5165" y1="127.181" x2="75.9463" y2="113.393" stroke="#FFFFFF"/>
<line x1="98.253" y1="106.35" x2="93.6644" y2="99.7971" stroke="#FFFFFF"/>
<line x1="121.5" y1="103.386" x2="112.5" y2="87.7975" stroke="#FFFFFF"/>
<text x="121.974" y="126.573" font-family="monospace" font-size="18" fill="#FFFFFF" transform="rotate(-30 121.974 126.573)">3</text>
<text x="132.366" y="120.573" font-family="monospace" font-size="18" fill="#FFFFFF" transform="rotate(-30 132.366 120.573)">3</text>
<line x1="135.691" y1="84.7357" x2="132.31" y2="77.4852" stroke="#FFFFFF"/>
<line x1="159.099" y1="85.8532" x2="152.943" y2="68.9387" stroke="#FFFFFF"/>
<line x1="176.313" y1="69.9504" x2="174.242" y2="62.223" stroke="#FFFFFF"/>
<line x1="199.172" y1="75.1158" x2="196.046" y2="57.3892" stroke="#FFFFFF"/>
<line x1="218.885" y1="62.4437" x2="218.188" y2="54.4742" stroke="#FFFFFF"/>
<rect x="192" y="0" width="96" height="34" fill="#000000"/>
<polygon points="240,51 221,34 259,34 " fill="#000000" shape-rendering="crispEdges"/>
<line x1="192.5" y1="0.5" x2="288.5" y2="0.5" stroke="#ADAAAD"/>
<line x1="192.5" y1="0.5" x2="192.5" y2="34.5" stroke="#ADAAAD"/>
<line x1="288.5" y1="0.5" x2="288.5" y2="34.5" stroke="#ADAAAD"/>
<line x1="192.5" y1="34.5" x2="221.5" y2="34.5" stroke="#ADAAAD"/>
<line x1="221.5" y1="34.5" x2="240.5" y2="51.5" stroke="#ADAAAD"/>
<line x1="259.5" y1="34.5" x2="240.5" y2="51.5" stroke="#ADAAAD"/>
<line x1="288.5" y1="34.5" x2="259.5" y2="34.5" stroke="#ADAAAD"/>
<text x="208" y="27" font-family="monospace" font-size="28" fill="#FFFFFF">0</text>
<text x="230" y="27" font-family="monospace" font-size="28" fill="#FFFFFF">0</text>
<text x="252" y="27" font-family="monospace" font-size="28" fill="#FFFFFF">0</text>
<circle cx="240.5" cy="309.5" r="258" fill="none" stroke="#FFFFFF"/>
<circle cx="240.5" cy="309.5" r="193" fill="none" stroke="#ADAAAD"/>
<circle cx="240.5" cy="309.5" r="129" fill="none" stroke="#ADAAAD"/>
<circle cx="240.5" cy="309.5" r="64" fill="none" stroke="#ADAAAD"/>
<polygon points="0,293 240,309 0,309 " fill="#000000" shape-rendering="crispEdges"/>
<polygon points="480,293 240,309 480,309 " fill="#000000" shape-rendering="crispEdges"/>
<rect x="0" y="309" width="480" height="10" fill="#000000"/>
<polygon points="240.5,299.5 227.5,318.5 252.5,318.5 " fill="none" stroke="#FFFFFF"/>
<line x1="240.5" y1="319.5" x2="240.5" y2="97.5" stroke="#FF00FF"/>
<line x1="240.5" y1="97.5" x2="240.5" y2="51.5" stroke="#ADAAAD"/>
<line x1="192.5" y1="112.5" x2="179.5" y2="58.5" stroke="#00FF00"/>
<rect x="201" y="153" width="4" height="4" fill="#00FF00"/>
<line x1="240.5" y1="309.5" x2="302.5" y2="58.5" stroke="#FFFFFF"/>

<text x="274" y="291" font-family="monospace" font-size="18" fill="#FFA600">3</text>
<text x="286" y="291" font-family="monospace" font-size="18" fill="#FFA600">5</text>
<text x="298" y="291" font-family="monospace" font-size="18" fill="#FFA600">0</text>
<text x="165" y="292" font-family="monospace" font-size="9" fill="#0000FF">P</text>
<text x="171" y="292" font-family="monospace" font-size="9" fill="#0000FF">H</text>
<text x="177" y="292" font-family="monospace" font-size="9" fill="#0000FF">L</text>
<text x="165" y="301" font-family="monospace" font-size="9" fill="#ADAAAD">1</text>
<text x="171" y="301" font-family="monospace" font-size="9" fill="#ADAAAD">1</text>
<text x="177" y="301" font-family="monospace" font-size="9" fill="#ADAAAD">8</text>
<text x="183" y="301" font-family="monospace" font-size="9" fill="#ADAAAD">.</text>
<text x="189" y="301" font-family="monospace" font-size="9" fill="#ADAAAD">5</text>
<text x="312" y="71" font-family="monospace" font-size="9" fill="#FF00FF">P</text>
<text x="318" y="71" font-family="monospace" font-size="9" fill="#FF00FF">N</text>
<text x="324" y="71" font-family="monospace" font-size="9" fill="#FF00FF">E</text>
<text x="312" y="80" font-family="monospace" font-size="9" fill="#ADAAAD">1</text>
<text x="318" y="80" font-family="monospace" font-size="9" fill="#ADAAAD">2</text>
<text x="324" y="80" font-family="monospace" font-size="9" fill="#ADAAAD">6</text>
<text x="330" y="80" font-family="monospace" font-size="9" fill="#ADAAAD">.</text>
<text x="336" y="80" font-family="monospace" font-size="9" fill="#ADAAAD">9</text>
<text x="439" y="214" font-family="monospace" font-size="9" fill="#FF00FF">L</text>
<text x="445" y="214" font-family="monospace" font-size="9" fill="#FF00FF">L</text>
<text x="451" y="214" font-family="monospace" font-size="9" fill="#FF00FF">Y</text>
<text x="462" y="222" font-family="monospace" font-size="9" fill="#FF00FF">N</text>
<text x="468" y="222" font-family="monospace" font-size="9" fill="#FF00FF">1</text>
<text x="474" y="222" font-family="monospace" font-size="9" fill="#FF00FF">4</text>
<text x="334" y="149" font-family="monospace" font-size="9" fill="#ADAAAD">8</text>
<text x="340" y="149" font-family="monospace" font-size="9" fill="#ADAAAD">3</text>
<text x="346" y="149" font-family="monospace" font-size="9" fill="#ADAAAD">N</text>
<text x="352" y="149" font-family="monospace" font-size="9" fill="#ADAAAD">J</text>
<text x="223" y="273" font-family="monospace" font-size="9" fill="#ADAAAD">U</text>
<text x="229" y="273" font-family="monospace" font-size="9" fill="#ADAAAD">S</text>
<text x="235" y="273" font-family="monospace" font-size="9" fill="#ADAAAD">-</text>
<text x="241" y="273" font-family="monospace" font-size="9" fill="#ADAAAD">0</text>
<text x="364" y="196" font-family="monospace" font-size="9" fill="#ADAAAD">U</text>
<text x="370" y="196" font-family="monospace" font-size="9" fill="#ADAAAD">S</text>
<text x="376" y="196" font-family="monospace" font-size="9" fill="#ADAAAD">-</text>
<text x="382" y="196" font-family="monospace" font-size="9" fill="#ADAAAD">1</text>
<text x="229" y="215" font-family="monospace" font-size="9" fill="#ADAAAD">U</text>
<text x="235" y="215" font-family="monospace" font-size="9" fill="#ADAAAD">S</text>
<text x="241" y="215" font-family="monospace" font-size="9" fill="#ADAAAD">-</text>
<text x="247" y="215" font-family="monospace" font-size="9" fill="#ADAAAD">1</text>
<text x="269" y="239" font-family="monospace" font-size="9" fill="#ADAAAD">U</text>
<text x="275" y="239" font-family="monospace" font-size="9" fill="#ADAAAD">S</text>
<text x="281" y="239" font-family="monospace" font-size="9" fill="#ADAAAD">-</text>
<text x="287" y="239" font-family="monospace" font-size="9" fill="#ADAAAD">1</text>
<text x="317" y="233" font-family="monospace" font-size="9" fill="#ADAAAD">U</text>
<text x="323" y="233" font-family="monospace" font-size="9" fill="#ADAAAD">S</text>
<text x="329" y="233" font-family="monospace" font-size="9" fill="#ADAAAD">-</text>
<text x="335" y="233" font-family="monospace" font-size="9" fill="#ADAAAD">1</text>
<text x="345" y="283" font-family="monospace" font-size="9" fill="#ADAAAD">U</text>
<text x="351" y="283" font-family="monospace" font-size="9" fill="#ADAAAD">S</text>
<text x="357" y="283" font-family="monospace" font-size="9" fill="#ADAAAD">-</text>
<text x="363" y="283" font-family="monospace" font-size="9" fill="#ADAAAD">1</text>
<text x="165" y="153" font-family="monospace" font-size="9" fill="#ADAAAD">U</text>
<text x="171" y="153" font-family="monospace" font-size="9" fill="#ADAAAD">S</text>
<text x="177" y="153" font-family="monospace" font-size="9" fill="#ADAAAD">-</text>
<text x="183" y="153" font-family="monospace" font-size="9" fill="#ADAAAD">1</text>
<text x="128" y="105" font-family="monospace" font-size="9" fill="#ADAAAD">U</text>
<text x="134" y="105" font-family="monospace" font-size="9" fill="#ADAAAD">S</text>
<text x="140" y="105" font-family="monospace" font-size="9" fill="#ADAAAD">-</text>
<text x="146" y="105" font-family="monospace" font-size="9" fill="#ADAAAD">1</text>
<text x="341" y="217" font-family="monospace" font-size="9" fill="#ADAAAD">U</text>
<text x="347" y="217" font-family="monospace" font-size="9" fill="#ADAAAD">S</text>
<text x="353" y="217" font-family="monospace" font-size="9" fill="#ADAAAD">-</text>
<text x="359" y="217" font-family="monospace" font-size="9" fill="#ADAAAD">9</text>
<text x="37" y="279" font-family="monospace" font-size="9" fill="#ADAAAD">U</text>
<text x="43" y="279" font-family="monospace" font-size="9" fill="#ADAAAD">S</text>
<text x="49" y="279" font-family="monospace" font-size="9" fill="#ADAAAD">-</text>
<text x="55" y="279" font-family="monospace" font-size="9" fill="#ADAAAD">9</text>
<text x="449" y="175" font-family="monospace" font-size="9" fill="#ADAAAD">U</text>
<text x="455" y="175" font-family="monospace" font-size="9" fill="#ADAAAD">S</text>
<text x="461" y="175" font-family="monospace" font-size="9" fill="#ADAAAD">-</text>
<text x="467" y="175" font-family="monospace" font-size="9" fill="#ADAAAD">9</text>
<text x="310" y="71" font-family="monospace" font-size="9" fill="#0000FF">P</text>
<text x="316" y="71" font-family="monospace" font-size="9" fill="#0000FF">N</text>
<text x="322" y="71" font-family="monospace" font-size="9" fill="#0000FF">E</text>
<text x="310" y="80" font-family="monospace" font-size="9" fill="#ADAAAD">1</text>
<text x="316" y="80" font-family="monospace" font-size="9" fill="#ADAAAD">1</text>
<text x="322" y="80" font-family="monospace" font-size="9" fill="#ADAAAD">2</text>
<text x="328" y="80" font-family="monospace" font-size="9" fill="#ADAAAD">.</text>
<text x="334" y="80" font-family="monospace" font-size="9" fill="#ADAAAD">0</text>
<text x="340" y="80" font-family="monospace" font-size="9" fill="#ADAAAD">0</text>
<text x="176" y="221" font-family="monospace" font-size="9" fill="#FFFF00">P</text>
<text x="182" y="221" font-family="monospace" font-size="9" fill="#FFFF00">H</text>
<text x="188" y="221" font-family="monospace" font-size="9" fill="#FFFF00">I</text>
<text x="194" y="221" font-family="monospace" font-size="9" fill="#FFFF00">L</text>
<text x="345" y="200" font-family="monospace" font-size="9" fill="#FFFF00">T</text>
<text x="351" y="200" font-family="monospace" font-size="9" fill="#FFFF00">H</text>
<text x="357" y="200" font-family="monospace" font-size="9" fill="#FFFF00">E</text>
<text x="369" y="200" font-family="monospace" font-size="9" fill="#FFFF00">F</text>
<text x="375" y="200" font-family="monospace" font-size="9" fill="#FFFF00">U</text>
<text x="381" y="200" font-family="monospace" font-size="9" fill="#FFFF00">N</text>
<text x="387" y="200" font-family="monospace" font-size="9" fill="#FFFF00">P</text>
<text x="393" y="200" font-family="monospace" font-size="9" fill="#FFFF00">L</text>
<text x="399" y="200" font-family="monospace" font-size="9" fill="#FFFF00">E</text>
<text x="405" y="200" font-family="monospace" font-size="9" fill="#FFFF00">X</text>
<text x="160" y="199" font-family="monospace" font-size="9" fill="#FFFFFF">7</text>
<text x="166" y="199" font-family="monospace" font-size="9" fill="#FFFFFF">6</text>
<text x="352" y="221" font-family="monospace" font-size="9" fill="#FFFFFF">2</text>
<text x="358" y="221" font-family="monospace" font-size="9" fill="#FFFFFF">9</text>
<text x="364" y="221" font-family="monospace" font-size="9" fill="#FFFFFF">5</text>
<text x="251" y="277" font-family="monospace" font-size="9" fill="#FFFFFF">7</text>
<text x="257" y="277" font-family="monospace" font-size="9" fill="#FFFFFF">6</text>
<text x="263" y="298" font-family="monospace" font-size="9" fill="#FFFFFF">7</text>
<text x="269" y="298" font-family="monospace" font-size="9" fill="#FFFFFF">6</text>
<text x="280" y="168" font-family="monospace" font-size="9" fill="#FFFFFF">9</text>
<text x="286" y="168" font-family="monospace" font-size="9" fill="#FFFFFF">5</text>
<text x="78" y="220" font-family="monospace" font-size="9" fill="#FFFFFF">4</text>
<text x="84" y="220" font-family="monospace" font-size="9" fill="#FFFFFF">7</text>
<text x="90" y="220" font-family="monospace" font-size="9" fill="#FFFFFF">6</text>
<text x="252" y="239" font-family="monospace" font-size="9" fill="#FFFFFF">6</text>
<text x="258" y="239" font-family="monospace" font-size="9" fill="#FFFFFF">7</text>
<text x="264" y="239" font-family="monospace" font-size="9" fill="#FFFFFF">6</text>
<text x="140" y="162" font-family="monospace" font-size="9" fill="#FFFFFF">7</text>
<text x="146" y="162" font-family="monospace" font-size="9" fill="#FFFFFF">6</text>
<text x="2" y="316" font-family="monospace" font-size="18" fill="#00FF00">3</text>
<text x="14" y="316" font-family="monospace" font-size="18" fill="#00FF00">9</text>
<text x="26" y="316" font-family="monospace" font-size="18" fill="#00FF00">.</text>
<text x="38" y="316" font-family="monospace" font-size="18" fill="#00FF00">8</text>
<text x="50" y="316" font-family="monospace" font-size="18" fill="#00FF00">5</text>
<text x="62" y="316" font-family="monospace" font-size="18" fill="#00FF00">0</text>
<text x="74" y="316" font-family="monospace" font-size="18" fill="#00FF00">0</text>
<text x="86" y="316" font-family="monospace" font-size="18" fill="#00FF00">N</text>
<text x="382" y="316" font-family="monospace" font-size="18" fill="#00FF00">7</text>
<text x="394" y="316" font-family="monospace" font-size="18" fill="#00FF00">5</text>
<text x="406" y="316" font-family="monospace" font-size="18" fill="#00FF00">.</text>
<text x="418" y="316" font-family="monospace" font-size="18" fill="#00FF00">1</text>
<text x="430" y="316" font-family="monospace" font-size="18" fill="#00FF00">3</text>
<text x="442" y="316" font-family="monospace" font-size="18" fill="#00FF00">0</text>
<text x="454" y="316" font-family="monospace" font-size="18" fill="#00FF00">0</text>
<text x="466" y="316" font-family="monospace" font-size="18" fill="#00FF00">W</text>
<text x="2" y="22" font-family="monospace" font-size="18" fill="#FFA600">P</text>
<text x="14" y="22" font-family="monospace" font-size="18" fill="#FFA600">R</text>
<text x="26" y="22" font-family="monospace" font-size="18" fill="#FFA600">O</text>
<text x="38" y="22" font-family="monospace" font-size="18" fill="#FFA600">X</text>
<text x="50" y="22" font-family="monospace" font-size="18" fill="#FFA600">I</text>
<text x="62" y="22" font-family="monospace" font-size="18" fill="#FFA600">M</text>
<text x="74" y="22" font-family="monospace" font-size="18" fill="#FFA600">I</text>
<text x="86" y="22" font-family="monospace" font-size="18" fill="#FFA600">T</text>
<text x="98" y="22" font-family="monospace" font-size="18" fill="#FFA600">Y</text>
<text x="418" y="42" font-family="monospace" font-size="18" fill="#ADAAAD">4</text>
<text x="430" y="42" font-family="monospace" font-size="18" fill="#ADAAAD">.</text>
<text x="442" y="42" font-family="monospace" font-size="18" fill="#ADAAAD">1</text>
<text x="454" y="42" font-family="monospace" font-size="18" fill="#ADAAAD">2</text>
<text x="466" y="42" font-family="monospace" font-size="18" fill="#ADAAAD">V</text>
</g></g>
<rect x="292" y="46" width="648" height="430" fill="none" stroke="#444" stroke-width="1"/>
<polyline points="284,64 291,64 332.5,67.6" fill="none" stroke="#000" stroke-width="4"/><polyline points="284,64 291,64 332.5,67.6" fill="none" stroke="#FFA600" stroke-width="1.6"/>

<text x="279" y="69" fill="#FFA600" font-size="14" font-weight="600" text-anchor="end" paint-order="stroke" stroke="#000" stroke-width="3.5">Proximity warning (Remote ID nearby)</text>
<polyline points="284,112.667 291,112.667 533.65,124.3" fill="none" stroke="#000" stroke-width="4"/><polyline points="284,112.667 291,112.667 533.65,124.3" fill="none" stroke="#00FF00" stroke-width="1.6"/>

<text x="279" y="117.667" fill="#00FF00" font-size="14" font-weight="600" text-anchor="end" paint-order="stroke" stroke="#000" stroke-width="3.5">Bearing &amp; distance to home</text>
<polyline points="284,161.333 291,161.333 391.249,196.653" fill="none" stroke="#000" stroke-width="4"/><polyline points="284,161.333 291,161.333 391.249,196.653" fill="none" stroke="#FFFFFF" stroke-width="1.6"/>

<text x="279" y="166.333" fill="#FFFFFF" font-size="14" font-weight="600" text-anchor="end" paint-order="stroke" stroke="#000" stroke-width="3.5">Compass card (rotates, heading-up)</text>
<polyline points="284,210 291,210 397.3,224.2" fill="none" stroke="#000" stroke-width="4"/><polyline points="284,210 291,210 397.3,224.2" fill="none" stroke="#424142" stroke-width="1.6"/>

<text x="279" y="215" fill="#424142" font-size="14" font-weight="600" text-anchor="end" paint-order="stroke" stroke="#000" stroke-width="3.5">Road / highway</text>
<polyline points="284,258.667 291,258.667 614.65,272.192" fill="none" stroke="#000" stroke-width="4"/><polyline points="284,258.667 291,258.667 614.65,272.192" fill="none" stroke="#FF00FF" stroke-width="1.6"/>

<text x="279" y="263.667" fill="#FF00FF" font-size="14" font-weight="600" text-anchor="end" paint-order="stroke" stroke="#000" stroke-width="3.5">Heading reference (track-up)</text>
<polyline points="284,307.333 291,307.333 567.4,340.3" fill="none" stroke="#000" stroke-width="4"/><polyline points="284,307.333 291,307.333 567.4,340.3" fill="none" stroke="#FFFF00" stroke-width="1.6"/>

<text x="279" y="312.333" fill="#FFFF00" font-size="14" font-weight="600" text-anchor="end" paint-order="stroke" stroke="#000" stroke-width="3.5">City / landmark</text>
<polyline points="284,356 291,356 384.458,341.387" fill="none" stroke="#000" stroke-width="4"/><polyline points="284,356 291,356 384.458,341.387" fill="none" stroke="#ADAAAD" stroke-width="1.6"/>

<text x="279" y="361" fill="#ADAAAD" font-size="14" font-weight="600" text-anchor="end" paint-order="stroke" stroke="#000" stroke-width="3.5">Range rings (¼ ½ ¾ of range)</text>
<polyline points="284,404.667 291,404.667 506.65,436.15" fill="none" stroke="#000" stroke-width="4"/><polyline points="284,404.667 291,404.667 506.65,436.15" fill="none" stroke="#0000FF" stroke-width="1.6"/>

<text x="279" y="409.667" fill="#0000FF" font-size="14" font-weight="600" text-anchor="end" paint-order="stroke" stroke="#000" stroke-width="3.5">Towered airport</text>
<polyline points="284,453.333 291,453.333 506.65,436.15" fill="none" stroke="#000" stroke-width="4"/><polyline points="284,453.333 291,453.333 506.65,436.15" fill="none" stroke="#00FFFF" stroke-width="1.6"/>

<text x="279" y="458.333" fill="#00FFFF" font-size="14" font-weight="600" text-anchor="end" paint-order="stroke" stroke="#000" stroke-width="3.5">Airport ring (size→colour)</text>
<polyline points="284,502 291,502 366.25,464.5" fill="none" stroke="#000" stroke-width="4"/><polyline points="284,502 291,502 366.25,464.5" fill="none" stroke="#00FF00" stroke-width="1.6"/>

<text x="279" y="507" fill="#00FF00" font-size="14" font-weight="600" text-anchor="end" paint-order="stroke" stroke="#000" stroke-width="3.5">GPS position (lat / lon)</text>
<polyline points="948,64 941,64 616,87.31" fill="none" stroke="#000" stroke-width="4"/><polyline points="948,64 941,64 616,87.31" fill="none" stroke="#FFFFFF" stroke-width="1.6"/>

<text x="953" y="69" fill="#FFFFFF" font-size="14" font-weight="600" text-anchor="start" paint-order="stroke" stroke="#000" stroke-width="3.5">Heading — digital readout</text>
<polyline points="948,112.667 941,112.667 896.8,89.2" fill="none" stroke="#000" stroke-width="4"/><polyline points="948,112.667 941,112.667 896.8,89.2" fill="none" stroke="#ADAAAD" stroke-width="1.6"/>

<text x="953" y="117.667" fill="#ADAAAD" font-size="14" font-weight="600" text-anchor="start" paint-order="stroke" stroke="#000" stroke-width="3.5">Battery voltage</text>
<polyline points="948,161.333 941,161.333 699.7,124.3" fill="none" stroke="#000" stroke-width="4"/><polyline points="948,161.333 941,161.333 699.7,124.3" fill="none" stroke="#FFFFFF" stroke-width="1.6"/>

<text x="953" y="166.333" fill="#FFFFFF" font-size="14" font-weight="600" text-anchor="start" paint-order="stroke" stroke="#000" stroke-width="3.5">Ground track (course made good)</text>
<polyline points="948,210 941,210 733.45,163.45" fill="none" stroke="#000" stroke-width="4"/><polyline points="948,210 941,210 733.45,163.45" fill="none" stroke="#FF00FF" stroke-width="1.6"/>

<text x="953" y="215" fill="#FF00FF" font-size="14" font-weight="600" text-anchor="start" paint-order="stroke" stroke="#000" stroke-width="3.5">Non-towered airport</text>
<polyline points="948,258.667 941,258.667 734.8,163.45" fill="none" stroke="#000" stroke-width="4"/><polyline points="948,258.667 941,258.667 734.8,163.45" fill="none" stroke="#0000FF" stroke-width="1.6"/>

<text x="953" y="263.667" fill="#0000FF" font-size="14" font-weight="600" text-anchor="start" paint-order="stroke" stroke="#000" stroke-width="3.5">VOR / navaid</text>
<polyline points="948,307.333 941,307.333 783.4,243.1" fill="none" stroke="#000" stroke-width="4"/><polyline points="948,307.333 941,307.333 783.4,243.1" fill="none" stroke="#ADAAAD" stroke-width="1.6"/>

<text x="953" y="312.333" fill="#ADAAAD" font-size="14" font-weight="600" text-anchor="start" paint-order="stroke" stroke="#000" stroke-width="3.5">Closed airfield</text>
<polyline points="948,356 941,356 721.3,248.5" fill="none" stroke="#000" stroke-width="4"/><polyline points="948,356 941,356 721.3,248.5" fill="none" stroke="#00AAFF" stroke-width="1.6"/>

<text x="953" y="361" fill="#00AAFF" font-size="14" font-weight="600" text-anchor="start" paint-order="stroke" stroke="#000" stroke-width="3.5">River</text>
<polyline points="948,404.667 941,404.667 671.35,291.7" fill="none" stroke="#000" stroke-width="4"/><polyline points="948,404.667 941,404.667 671.35,291.7" fill="none" stroke="#ADAAAD" stroke-width="1.6"/>

<text x="953" y="409.667" fill="#ADAAAD" font-size="14" font-weight="600" text-anchor="start" paint-order="stroke" stroke="#000" stroke-width="3.5">State line</text>
<polyline points="948,453.333 941,453.333 645.7,430.75" fill="none" stroke="#000" stroke-width="4"/><polyline points="948,453.333 941,453.333 645.7,430.75" fill="none" stroke="#FFA600" stroke-width="1.6"/>

<text x="953" y="458.333" fill="#FFA600" font-size="14" font-weight="600" text-anchor="start" paint-order="stroke" stroke="#000" stroke-width="3.5">Remote ID traffic — altitude (ft)</text>
<polyline points="948,502 941,502 616,465.269" fill="none" stroke="#000" stroke-width="4"/><polyline points="948,502 941,502 616,465.269" fill="none" stroke="#FFFFFF" stroke-width="1.6"/>

<text x="953" y="507" fill="#FFFFFF" font-size="14" font-weight="600" text-anchor="start" paint-order="stroke" stroke="#000" stroke-width="3.5">Own-aircraft symbol (fixed)</text>
</svg>
